<?xml version="1.0" encoding="UTF-8" standalone="no"?>
<!-- Created with Inkscape (http://www.inkscape.org/) -->

<svg
   xmlns:dc="http://purl.org/dc/elements/1.1/"
   xmlns:cc="http://creativecommons.org/ns#"
   xmlns:rdf="http://www.w3.org/1999/02/22-rdf-syntax-ns#"
   xmlns:svg="http://www.w3.org/2000/svg"
   xmlns="http://www.w3.org/2000/svg"
   xmlns:sodipodi="http://sodipodi.sourceforge.net/DTD/sodipodi-0.dtd"
   xmlns:inkscape="http://www.inkscape.org/namespaces/inkscape"
   width="82mm"
   height="36mm"
   viewBox="0 0 290.551 127.55898"
   id="svg2"
   version="1.1"
   inkscape:version="0.91 r13725"
   sodipodi:docname="yolo.svg">
  <defs
     id="defs4" />
  <sodipodi:namedview
     id="base"
     pagecolor="#ffffff"
     bordercolor="#666666"
     borderopacity="1.0"
     inkscape:pageopacity="0.0"
     inkscape:pageshadow="2"
     inkscape:zoom="1.0823183"
     inkscape:cx="273.35146"
     inkscape:cy="91.472784"
     inkscape:document-units="px"
     inkscape:current-layer="layer1"
     showgrid="false"
     inkscape:window-width="1278"
     inkscape:window-height="770"
     inkscape:window-x="0"
     inkscape:window-y="28"
     inkscape:window-maximized="1" />
  <metadata
     id="metadata7">
    <rdf:RDF>
      <cc:Work
         rdf:about="">
        <dc:format>image/svg+xml</dc:format>
        <dc:type
           rdf:resource="http://purl.org/dc/dcmitype/StillImage" />
        <dc:title></dc:title>
      </cc:Work>
    </rdf:RDF>
  </metadata>
  <g
     inkscape:label="Livello 1"
     inkscape:groupmode="layer"
     id="layer1"
     transform="translate(0,-924.80352)">
    <path
       style="fill:#0000f5;fill-opacity:1;fill-rule:evenodd;stroke:#0000c3;stroke-width:2;stroke-linecap:butt;stroke-linejoin:miter;stroke-miterlimit:4;stroke-dasharray:none;stroke-opacity:1"
       d="m 48.075231,957.89652 30.121737,0"
       id="path3340"
       inkscape:connector-curvature="0" />
    <path
       style="fill:#0000f5;fill-opacity:1;fill-rule:evenodd;stroke:#0000c3;stroke-width:2;stroke-linecap:butt;stroke-linejoin:miter;stroke-miterlimit:4;stroke-dasharray:none;stroke-opacity:1"
       d="m 29.511832,1018.3152 30.121739,0"
       id="path3340-5"
       inkscape:connector-curvature="0" />
    <path
       style="fill:#0000f5;fill-opacity:1;fill-rule:evenodd;stroke:#0000c3;stroke-width:2;stroke-linecap:butt;stroke-linejoin:miter;stroke-miterlimit:4;stroke-dasharray:none;stroke-opacity:1"
       d="M 58.933061,1018.3152 77.846708,957.89652"
       id="path3359"
       inkscape:connector-curvature="0" />
    <path
       style="fill:#0000f5;fill-opacity:1;fill-rule:evenodd;stroke:#0000c3;stroke-width:2;stroke-linecap:butt;stroke-linejoin:miter;stroke-miterlimit:4;stroke-dasharray:none;stroke-opacity:1"
       d="m 37.742773,973.83302 35.200398,43.95678 0,0"
       id="path3361"
       inkscape:connector-curvature="0" />
    <path
       style="fill:#0000f5;fill-opacity:1;fill-rule:evenodd;stroke:#0000c3;stroke-width:2;stroke-linecap:butt;stroke-linejoin:miter;stroke-miterlimit:4;stroke-dasharray:none;stroke-opacity:1"
       d="m 29.552281,1018.1761 18.91365,-60.41865"
       id="path3359-2"
       inkscape:connector-curvature="0" />
    <path
       style="fill:#0000f5;fill-opacity:1;fill-rule:evenodd;stroke:#0000c3;stroke-width:2;stroke-linecap:butt;stroke-linejoin:miter;stroke-miterlimit:4;stroke-dasharray:none;stroke-opacity:1"
       d="m 37.781485,974.1241 3.058896,-9.90922 0,0"
       id="path3430"
       inkscape:connector-curvature="0" />
    <text
       xml:space="preserve"
       style="font-style:normal;font-variant:normal;font-weight:normal;font-stretch:normal;font-size:40px;line-height:125%;font-family:'DejaVu Sans Mono';-inkscape-font-specification:'DejaVu Sans Mono';letter-spacing:0px;word-spacing:0px;fill:#000000;fill-opacity:1;stroke:none;stroke-width:1px;stroke-linecap:butt;stroke-linejoin:miter;stroke-opacity:1"
       x="81.125542"
       y="1008.6154"
       id="text3432"
       sodipodi:linespacing="125%"><tspan
         sodipodi:role="line"
         id="tspan3434"
         x="81.125542"
         y="1008.6154"
         style="font-style:normal;font-variant:normal;font-weight:normal;font-stretch:normal;font-family:Roboto;-inkscape-font-specification:Roboto"><tspan
   style="fill:#0000ff"
   id="tspan3436">B</tspan>el<tspan
   style="fill:#0000ff"
   id="tspan3438">T</tspan>ronics</tspan></text>
    <path
       style="opacity:0.01000001;fill:#0000ff"
       d=""
       id="path3444"
       inkscape:connector-curvature="0" />
    <path
       style="opacity:0.01000001;fill:#0000ff"
       d=""
       id="path3446"
       inkscape:connector-curvature="0" />
    <path
       style="opacity:0.01000001;fill:#0000ff"
       d=""
       id="path3448"
       inkscape:connector-curvature="0" />
    <path
       style="opacity:0.01000001;fill:#0000ff"
       d=""
       id="path3450"
       inkscape:connector-curvature="0" />
    <path
       style="opacity:0.01000001;fill:#0000ff"
       d=""
       id="path3452"
       inkscape:connector-curvature="0" />
    <path
       style="opacity:0.01000001;fill:#0000f5;fill-opacity:1;stroke:#0000c3;stroke-width:2;stroke-miterlimit:4;stroke-dasharray:none;stroke-opacity:1"
       d="m 29.611116,1018.1216 c -0.124009,-0.3907 1.967716,-7.5653 5.389913,-18.48735 3.075913,-9.81682 5.783442,-18.47792 6.016722,-19.2469 l 0.42416,-1.39813 -1.96988,-2.47888 -1.969875,-2.47888 1.410075,-4.69467 c 1.25959,-4.19363 1.72909,-5.30309 2.08669,-4.93102 0.0603,0.0627 -0.54201,2.21116 -1.33845,4.77427 l -1.44807,4.66021 1.68222,2.11407 c 0.92522,1.16274 1.74087,2.05542 1.81256,1.98373 0.0717,-0.0717 1.50874,-4.54554 3.19344,-9.94189 1.6847,-5.39635 3.15609,-9.96202 3.26975,-10.14593 0.13643,-0.22073 5.23801,-0.33439 15.00984,-0.33439 13.6346,0 14.803167,0.0431 14.803167,0.54622 0,0.30042 -3.170907,10.67203 -7.046467,23.04802 -3.87556,12.37598 -7.15883,22.88792 -7.29617,23.35982 -0.2229,0.766 0.2707,1.5078 4.59637,6.9076 2.66535,3.3273 4.71569,6.1301 4.55632,6.2286 -0.15938,0.099 -2.39188,-2.4583 -4.96111,-5.6818 l -4.67134,-5.8608 -1.53698,4.8009 c -0.84534,2.6405 -1.71597,5.4972 -1.93474,6.3483 l -0.39777,1.5474 -14.73886,0 c -14.352568,0 -14.74417,-0.017 -14.941515,-0.6385 z m 29.855295,-2.7821 c 0.47639,-1.4333 1.37853,-4.2539 2.00476,-6.268 l 1.13859,-3.6619 -10.30628,-12.88737 c -9.08093,-11.35517 -10.33555,-12.79829 -10.55239,-12.13784 -1.21282,3.69405 -11.655457,37.25971 -11.655457,37.46401 0,0.1469 6.413538,0.2288 14.252307,0.1821 l 14.25231,-0.085 0.86616,-2.6061 z m 10.54422,-33.57661 c 3.8619,-12.35043 7.098917,-22.71187 7.193377,-23.02542 0.16175,-0.53691 -0.662747,-0.57009 -14.165847,-0.57009 l -14.3376,0 -1.14935,3.66488 c -0.63215,2.01568 -2.09223,6.67007 -3.24463,10.3431 -1.72265,5.49052 -2.02239,6.76513 -1.68543,7.16687 0.22542,0.26876 4.84114,6.03507 10.25716,12.81401 5.41601,6.77895 9.90656,12.26606 9.97899,12.19366 0.0724,-0.072 3.29143,-10.23657 7.15333,-22.58701 z"
       id="path3454"
       inkscape:connector-curvature="0" />
    <path
       style="opacity:1;fill:#0000f5;fill-opacity:1;stroke:#0000c3;stroke-width:2;stroke-miterlimit:4;stroke-dasharray:none;stroke-opacity:1"
       d="m 29.611997,1018.1243 c -0.122818,-0.3869 1.985398,-7.6212 5.387549,-18.48728 3.074129,-9.81834 5.779215,-18.47389 6.011295,-19.23454 l 0.42197,-1.38301 -1.9723,-2.47081 -1.97229,-2.47081 1.41704,-4.71786 c 1.26581,-4.21433 1.73583,-5.32653 2.09366,-4.95422 0.0603,0.0627 -0.54201,2.21116 -1.33845,4.77427 l -1.44807,4.66021 1.68222,2.11407 c 0.92522,1.16274 1.74087,2.05542 1.81256,1.98373 0.0717,-0.0717 1.50874,-4.54554 3.19344,-9.94189 1.6847,-5.39635 3.15609,-9.96202 3.26975,-10.14593 0.13643,-0.22073 5.23801,-0.33439 15.00984,-0.33439 13.71809,0 14.803167,0.0406 14.803167,0.55408 0,0.30474 -3.170937,10.67635 -7.046527,23.04802 -3.87559,12.37166 -7.15887,22.88006 -7.29618,23.35196 -0.22282,0.7659 0.27093,1.508 4.59644,6.9076 2.66535,3.3273 4.71569,6.1301 4.55632,6.2286 -0.15938,0.099 -2.39188,-2.4563 -4.96111,-5.6774 l -4.67134,-5.8565 -1.53532,4.7965 c -0.84443,2.6381 -1.71507,5.4929 -1.93475,6.344 l -0.39942,1.5474 -14.73886,0 c -14.330674,0 -14.744447,-0.018 -14.940634,-0.6358 z m 29.854414,-2.7848 c 0.47639,-1.4333 1.37853,-4.2539 2.00476,-6.268 l 1.13859,-3.6619 -10.28931,-12.86614 c -5.65912,-7.0764 -10.31794,-12.83162 -10.35293,-12.78938 -0.12356,0.14916 -11.873945,37.86932 -11.872924,38.11352 5.71e-4,0.1363 6.414575,0.2096 14.253344,0.1629 l 14.25231,-0.085 0.86616,-2.6061 z m 10.53665,-33.57048 c 3.86448,-12.3538 7.104257,-22.718 7.199507,-23.03155 0.16311,-0.53694 -0.660957,-0.57009 -14.168527,-0.57009 l -14.34171,0 -0.98336,3.17622 c -0.54085,1.74693 -2.00013,6.40133 -3.24284,10.34311 -1.86353,5.91098 -2.18724,7.2525 -1.8473,7.65552 0.2267,0.26876 4.84346,6.03507 10.25948,12.81401 5.41601,6.77895 9.9038,12.26886 9.97286,12.19986 0.0691,-0.069 3.28741,-10.23327 7.15189,-22.58708 z"
       id="path3456"
       inkscape:connector-curvature="0" />
    <path
       style="opacity:0;fill:#0000f5;fill-opacity:1;stroke:#0000c3;stroke-width:2;stroke-miterlimit:4;stroke-dasharray:none;stroke-opacity:1"
       d="m 30.49725,1017.3756 c 0.08006,-0.224 2.697578,-8.58 5.816715,-18.56896 3.119136,-9.98892 5.781746,-18.12481 5.916916,-18.07976 0.13516,0.0451 4.69708,5.64658 10.1376,12.44783 l 9.89185,12.36589 -0.42811,1.3161 c -0.23545,0.7238 -1.10334,3.4782 -1.92864,6.121 l -1.50054,4.8051 -14.02567,0 c -11.080994,0 -13.995117,-0.086 -13.880121,-0.4072 z"
       id="path3458"
       inkscape:connector-curvature="0" />
    <path
       style="opacity:0.01000001;fill:#0000ff"
       d=""
       id="path3460"
       inkscape:connector-curvature="0" />
    <path
       style="fill:#0000f5;fill-opacity:1;fill-rule:evenodd;stroke:#0000c3;stroke-width:2;stroke-linecap:butt;stroke-linejoin:miter;stroke-miterlimit:4;stroke-dasharray:none;stroke-opacity:1"
       d="m 62.467721,957.75979 3.76884,-12.81407"
       id="path4287"
       inkscape:connector-curvature="0" />
    <path
       style="fill:#0000f5;fill-opacity:1;fill-rule:evenodd;stroke:#0000c3;stroke-width:2;stroke-linecap:butt;stroke-linejoin:miter;stroke-miterlimit:4;stroke-dasharray:none;stroke-opacity:1"
       d="m 40.231541,1031.5035 3.76884,-12.814"
       id="path4287-9"
       inkscape:connector-curvature="0" />
  </g>
</svg>
