<?xml version="1.0" encoding="UTF-8" standalone="no"?>
<!-- Created with Inkscape (http://www.inkscape.org/) -->

<svg
   xmlns:dc="http://purl.org/dc/elements/1.1/"
   xmlns:cc="http://creativecommons.org/ns#"
   xmlns:rdf="http://www.w3.org/1999/02/22-rdf-syntax-ns#"
   xmlns:svg="http://www.w3.org/2000/svg"
   xmlns="http://www.w3.org/2000/svg"
   xmlns:sodipodi="http://sodipodi.sourceforge.net/DTD/sodipodi-0.dtd"
   xmlns:inkscape="http://www.inkscape.org/namespaces/inkscape"
   width="115mm"
   height="36mm"
   viewBox="0 0 407.4799 127.55898"
   id="svg2"
   version="1.1"
   inkscape:version="0.91 r13725"
   sodipodi:docname="logo_vettoriale.svg">
  <defs
     id="defs4" />
  <sodipodi:namedview
     id="base"
     pagecolor="#ffffff"
     bordercolor="#666666"
     borderopacity="1.0"
     inkscape:pageopacity="0.0"
     inkscape:pageshadow="2"
     inkscape:zoom="6.0590319"
     inkscape:cx="81.177346"
     inkscape:cy="91.472784"
     inkscape:document-units="px"
     inkscape:current-layer="layer1"
     showgrid="false"
     inkscape:window-width="1278"
     inkscape:window-height="770"
     inkscape:window-x="0"
     inkscape:window-y="28"
     inkscape:window-maximized="1" />
  <metadata
     id="metadata7">
    <rdf:RDF>
      <cc:Work
         rdf:about="">
        <dc:format>image/svg+xml</dc:format>
        <dc:type
           rdf:resource="http://purl.org/dc/dcmitype/StillImage" />
        <dc:title></dc:title>
      </cc:Work>
    </rdf:RDF>
  </metadata>
  <g
     inkscape:label="Livello 1"
     inkscape:groupmode="layer"
     id="layer1"
     transform="translate(0,-924.80352)">
    <path
       style="fill:#0000f5;fill-opacity:1;fill-rule:evenodd;stroke:#0000ff;stroke-width:4.37599739;stroke-linecap:butt;stroke-linejoin:miter;stroke-miterlimit:4;stroke-dasharray:none;stroke-opacity:1"
       d="m 43.536881,958.33598 34.567546,0"
       id="path3340"
       inkscape:connector-curvature="0" />
    <path
       style="fill:#0000f5;fill-opacity:1;fill-rule:evenodd;stroke:#0000ff;stroke-width:4.37599739;stroke-linecap:butt;stroke-linejoin:miter;stroke-miterlimit:4;stroke-dasharray:none;stroke-opacity:1"
       d="m 22.233624,1020.6401 34.567546,0"
       id="path3340-5"
       inkscape:connector-curvature="0" />
    <path
       style="fill:#0000f5;fill-opacity:1;fill-rule:evenodd;stroke:#0000ff;stroke-width:4.37599739;stroke-linecap:butt;stroke-linejoin:miter;stroke-miterlimit:4;stroke-dasharray:none;stroke-opacity:1"
       d="M 55.997269,1020.6401 77.70247,958.33598"
       id="path3359"
       inkscape:connector-curvature="0" />
    <path
       style="fill:#0000f5;fill-opacity:1;fill-rule:evenodd;stroke:#0000ff;stroke-width:4.37599739;stroke-linecap:butt;stroke-linejoin:miter;stroke-miterlimit:4;stroke-dasharray:none;stroke-opacity:1"
       d="m 31.679407,974.76981 40.39579,45.32849 0,0"
       id="path3361"
       inkscape:connector-curvature="0" />
    <path
       style="fill:#0000f5;fill-opacity:1;fill-rule:evenodd;stroke:#0000ff;stroke-width:4.37599739;stroke-linecap:butt;stroke-linejoin:miter;stroke-miterlimit:4;stroke-dasharray:none;stroke-opacity:1"
       d="M 22.280043,1020.4967 43.985247,958.19258"
       id="path3359-2"
       inkscape:connector-curvature="0" />
    <path
       style="fill:#0000f5;fill-opacity:1;fill-rule:evenodd;stroke:#0000ff;stroke-width:4.37599739;stroke-linecap:butt;stroke-linejoin:miter;stroke-miterlimit:4;stroke-dasharray:none;stroke-opacity:1"
       d="m 31.723833,975.06998 3.510374,-10.21846 0,0"
       id="path3430"
       inkscape:connector-curvature="0" />
    <text
       xml:space="preserve"
       style="font-style:normal;font-variant:normal;font-weight:normal;font-stretch:normal;font-size:53.09288406px;line-height:125%;font-family:'DejaVu Sans Mono';-inkscape-font-specification:'DejaVu Sans Mono';letter-spacing:0px;word-spacing:0px;fill:#000000;fill-opacity:1;stroke:none;stroke-width:1px;stroke-linecap:butt;stroke-linejoin:miter;stroke-opacity:1"
       x="80.997681"
       y="1008.5129"
       id="text3432"
       sodipodi:linespacing="125%"><tspan
         sodipodi:role="line"
         id="tspan3434"
         x="80.997681"
         y="1008.5129"
         style="font-style:normal;font-variant:normal;font-weight:bold;font-stretch:semi-expanded;font-family:Magneto;-inkscape-font-specification:'Magneto Bold Semi-Expanded'"><tspan
   style="font-style:normal;font-variant:normal;font-weight:bold;font-stretch:semi-expanded;font-family:Magneto;-inkscape-font-specification:'Magneto Bold Semi-Expanded';fill:#0000ff"
   id="tspan3436">B</tspan>el<tspan
   style="font-style:normal;font-variant:normal;font-weight:bold;font-stretch:semi-expanded;font-family:Magneto;-inkscape-font-specification:'Magneto Bold Semi-Expanded';fill:#0000ff"
   id="tspan3438">T</tspan>ronics</tspan></text>
    <path
       style="opacity:0.01000001;fill:#0000ff"
       d=""
       id="path3444"
       inkscape:connector-curvature="0" />
    <path
       style="opacity:0.01000001;fill:#0000ff"
       d=""
       id="path3446"
       inkscape:connector-curvature="0" />
    <path
       style="opacity:0.01000001;fill:#0000ff"
       d=""
       id="path3448"
       inkscape:connector-curvature="0" />
    <path
       style="opacity:0.01000001;fill:#0000ff"
       d=""
       id="path3450"
       inkscape:connector-curvature="0" />
    <path
       style="opacity:0.01000001;fill:#0000ff"
       d=""
       id="path3452"
       inkscape:connector-curvature="0" />
    <path
       style="opacity:0.01000001;fill:#0000f5;fill-opacity:1;stroke:#0000ff;stroke-width:4.37599739;stroke-miterlimit:4;stroke-dasharray:none;stroke-opacity:1"
       d="m 22.347561,1020.4406 c -0.142311,-0.4031 2.258141,-7.8015 6.185436,-19.0644 3.529901,-10.12315 6.637047,-19.05454 6.904758,-19.84751 l 0.486764,-1.44176 -2.260624,-2.55624 -2.260618,-2.55624 1.618194,-4.84117 c 1.4455,-4.3245 1.984295,-5.46859 2.394675,-5.08492 0.0692,0.0647 -0.622008,2.28018 -1.535999,4.92327 l -1.661796,4.80564 1.930507,2.18004 c 1.061776,1.19902 1.997812,2.11956 2.080084,2.04564 0.08229,-0.074 1.731421,-4.68739 3.664774,-10.25214 1.933353,-5.56476 3.621912,-10.27291 3.752348,-10.46256 0.156567,-0.22762 6.011112,-0.34482 17.225212,-0.34482 15.646994,0 16.988035,0.0444 16.988035,0.56325 0,0.3098 -3.638915,11.00508 -8.086488,23.7673 -4.447571,12.76218 -8.215434,23.60222 -8.373045,24.08882 -0.255799,0.7899 0.310654,1.5548 5.274769,7.1231 3.058741,3.4312 5.411701,6.3214 5.228809,6.423 -0.182904,0.1023 -2.744909,-2.535 -5.693343,-5.859 l -5.360806,-6.0438 -1.763829,4.9508 c -0.970108,2.7228 -1.969238,5.6687 -2.220298,6.5464 l -0.456479,1.5956 -16.914236,0 c -16.470931,0 -16.920332,-0.018 -17.146804,-0.6583 z m 34.261779,-2.869 c 0.546701,-1.478 1.581993,-4.3866 2.300651,-6.4636 l 1.306639,-3.7761 -11.827432,-13.28963 C 37.967972,982.33273 36.528176,980.84458 36.279332,981.52564 c -1.391826,3.80933 -13.37574,38.42236 -13.37574,38.63316 0,0.1515 7.360142,0.2359 16.355872,0.1878 l 16.355874,-0.088 0.994002,-2.6875 z m 12.100489,-34.62445 c 4.431895,-12.73584 8.14668,-23.42063 8.255082,-23.74398 0.185623,-0.55366 -0.760566,-0.58787 -16.256651,-0.58787 l -16.453754,0 -1.318987,3.77924 c -0.725453,2.0786 -2.401033,6.87823 -3.72352,10.66589 -1.976904,5.66186 -2.320884,6.97624 -1.93419,7.39052 0.25869,0.27714 5.555666,6.2234 11.771061,13.2139 6.215385,6.99045 11.368716,12.64895 11.451837,12.57425 0.08308,-0.074 3.777226,-10.55609 8.209122,-23.29195 z"
       id="path3454"
       inkscape:connector-curvature="0" />
    <path
       style="opacity:1;fill:#0000ff;fill-opacity:1;stroke:#0000ff;stroke-width:4.37599739;stroke-miterlimit:4;stroke-dasharray:none;stroke-opacity:1"
       d="m 22.348572,1020.4434 c -0.140945,-0.3991 2.278433,-7.8591 6.182723,-19.0643 3.527854,-10.12476 6.632196,-19.05043 6.89853,-19.83481 l 0.484251,-1.42618 -2.263401,-2.54791 -2.26339,-2.54791 1.626188,-4.8651 c 1.452636,-4.34584 1.992029,-5.49274 2.402673,-5.10883 0.0692,0.0647 -0.622008,2.28018 -1.535999,4.92327 l -1.661796,4.80564 1.930507,2.18004 c 1.061776,1.19902 1.997812,2.11956 2.080084,2.04564 0.08229,-0.074 1.731421,-4.68739 3.664774,-10.25214 1.933353,-5.56476 3.621912,-10.27291 3.752348,-10.46256 0.156567,-0.22762 6.011112,-0.34482 17.225212,-0.34482 15.742807,0 16.988035,0.0419 16.988035,0.57136 0,0.31426 -3.63895,11.00954 -8.086557,23.76729 -4.447606,12.75774 -8.215481,23.59412 -8.373057,24.08072 -0.255707,0.7898 0.310918,1.555 5.27485,7.1231 3.058741,3.4312 5.411701,6.3214 5.228809,6.423 -0.182904,0.1023 -2.744909,-2.5329 -5.693343,-5.8546 l -5.360806,-6.0393 -1.761924,4.9464 c -0.969064,2.7203 -1.968205,5.6642 -2.22031,6.5419 l -0.458372,1.5956 -16.914236,0 c -16.445805,0 -16.920649,-0.019 -17.145793,-0.6555 z m 34.260768,-2.8718 c 0.546701,-1.478 1.581993,-4.3866 2.300651,-6.4636 l 1.306639,-3.7761 -11.807957,-13.26775 c -6.494376,-7.29723 -11.840813,-13.23206 -11.880967,-13.1885 -0.141797,0.15381 -13.626476,39.05115 -13.625305,39.30305 6.56e-4,0.1405 7.361333,0.216 16.357063,0.1679 l 16.355874,-0.088 0.994002,-2.6875 z m 12.091803,-34.61813 c 4.434855,-12.73932 8.152807,-23.42695 8.262115,-23.7503 0.187184,-0.55369 -0.758511,-0.58787 -16.259726,-0.58787 l -16.458469,0 -1.1285,3.27533 c -0.620676,1.80146 -2.295338,6.60111 -3.721466,10.66589 -2.138577,6.09546 -2.510064,7.47884 -2.119951,7.89443 0.260159,0.27714 5.558329,6.2234 11.773724,13.2139 6.215385,6.99045 11.365548,12.65175 11.444801,12.58055 0.0793,-0.071 3.772614,-10.55259 8.207472,-23.29193 z"
       id="path3456"
       inkscape:connector-curvature="0" />
    <path
       style="opacity:0;fill:#0000f5;fill-opacity:1;stroke:#0000ff;stroke-width:4.37599739;stroke-miterlimit:4;stroke-dasharray:none;stroke-opacity:1"
       d="m 23.364484,1019.6712 c 0.09187,-0.231 3.095726,-8.8477 6.675231,-19.1484 3.579504,-10.30066 6.635102,-18.69045 6.790221,-18.64398 0.155109,0.0464 5.390345,5.82279 11.633856,12.83629 l 11.351835,12.75169 -0.491298,1.3573 c -0.270201,0.7464 -1.266186,3.5868 -2.213296,6.312 l -1.722012,4.9551 -16.095783,0 c -12.71649,0 -16.060723,-0.089 -15.928754,-0.42 z"
       id="path3458"
       inkscape:connector-curvature="0" />
    <path
       style="opacity:0.01000001;fill:#0000ff"
       d=""
       id="path3460"
       inkscape:connector-curvature="0" />
    <path
       style="fill:#0000f5;fill-opacity:1;fill-rule:evenodd;stroke:#0000ff;stroke-width:4.37599739;stroke-linecap:butt;stroke-linejoin:miter;stroke-miterlimit:4;stroke-dasharray:none;stroke-opacity:1"
       d="m 60.053627,958.195 4.325099,-13.21398"
       id="path4287"
       inkscape:connector-curvature="0" />
    <path
       style="fill:#0000f5;fill-opacity:1;fill-rule:evenodd;stroke:#0000ff;stroke-width:4.37599739;stroke-linecap:butt;stroke-linejoin:miter;stroke-miterlimit:4;stroke-dasharray:none;stroke-opacity:1"
       d="m 34.535505,1034.24 4.3251,-13.2139"
       id="path4287-9"
       inkscape:connector-curvature="0" />
  </g>
</svg>
